<svg viewBox="0 0 32 32" fill="none" xmlns="http://www.w3.org/2000/svg">
  <!-- Background circle -->
  <circle cx="16" cy="16" r="15" fill="#fdfcfa" stroke="#b8860b" stroke-width="1"/>

  <!-- Spade shape -->
  <path
    d="M16 5C16 5 8 12 8 17C8 19.8 10 22 13 22C14.3 22 15.3 21.5 16 20.8C16.7 21.5 17.7 22 19 22C22 22 24 19.8 24 17C24 12 16 5 16 5Z"
    fill="#1a1a1a"
  />
  <!-- Spade stem -->
  <path
    d="M14 21L13 26H19L18 21"
    fill="#1a1a1a"
  />
  <!-- Inner highlight -->
  <path
    d="M16 8C16 8 11 13 11 16.5C11 18.2 12.2 19.5 14 19.5C14.8 19.5 15.4 19.2 16 18.5C16.6 19.2 17.2 19.5 18 19.5C19.8 19.5 21 18.2 21 16.5C21 13 16 8 16 8Z"
    fill="#fdfcfa"
    opacity="0.1"
  />
</svg>
